<svg width="45" height="46" viewBox="0 0 45 46" fill="none" xmlns="http://www.w3.org/2000/svg">
<g clip-path="url(#clip0_2888_5084)">
<path d="M23.6272 6.26589L22.502 5.14062L21.1836 11.293L20.3047 19.3695L23.8203 19.3698V6.73197C23.8203 6.55716 23.7509 6.38955 23.6272 6.26589Z" fill="white"/>
<path d="M22.0362 11.8115L21.1855 11.293V6.73197C21.1855 6.55716 21.255 6.38946 21.3786 6.26589L22.5039 5.14062V11.5489C22.5039 11.7889 22.2411 11.9365 22.0362 11.8115ZM21.1855 18.2688V11.293L20.0603 12.4182C19.9366 12.5419 19.8672 12.7095 19.8672 12.8843V21.1279H23.8223V19.3699L22.5039 18.9301L21.3959 18.5608C21.2703 18.5188 21.1855 18.4013 21.1855 18.2688Z" fill="white"/>
<path d="M19.8633 19.4453L18.9844 28.038L22.5 27.7191V20.2484L20.1691 19.4714C20.0694 19.4382 19.9646 19.4302 19.8633 19.4453Z" fill="white"/>
<path d="M19.8652 19.4453C19.7705 19.4595 19.6787 19.4938 19.597 19.5483L18.8404 20.0527C18.657 20.175 18.5469 20.3808 18.5469 20.6012V29.0374H22.502V27.7191L20.109 27.2109C19.9668 27.1807 19.8652 27.0552 19.8652 26.91V19.4453Z" fill="white"/>
<path d="M18.8175 28.2196C18.7262 28.1993 18.6328 28.1993 18.543 28.2176L17.6641 36.3104L22.498 35.6293V29.0375L18.8175 28.2196Z" fill="white"/>
<path d="M18.5449 28.2175C18.4622 28.2344 18.3826 28.2667 18.3109 28.3145L17.5201 28.8416C17.3367 28.9639 17.2266 29.1697 17.2266 29.3901V37.5627L22.5 36.9474V35.6291L18.8372 35.4459C18.6734 35.4377 18.5449 35.3026 18.5449 35.1387V28.2175Z" fill="white"/>
<path d="M17.3123 36.6881C17.285 36.6867 17.2576 36.6871 17.2305 36.6891L16.3516 41.7646L22.5039 40.8857V36.9476L17.3123 36.6881Z" fill="white"/>
<path d="M17.2246 36.689C17.1976 36.691 17.1708 36.6946 17.1443 36.7L16.4362 36.8415C16.1281 36.9032 15.9063 37.1737 15.9063 37.4879L15.9062 42.2039L22.498 43.662V40.8857H17.5322C17.3623 40.8857 17.2246 40.7479 17.2246 40.578V36.689Z" fill="white"/>
<path d="M25.1391 23.3247V16.5581C25.1391 16.3377 25.029 16.132 24.8455 16.0097L24.1864 15.5703C24.0698 15.4926 23.9348 15.457 23.8008 15.461L22.9219 24.6497L25.1391 23.3247Z" fill="white"/>
<path d="M23.7984 23.3439V15.4609C23.6776 15.4646 23.5576 15.5002 23.4527 15.5702L22.5 16.2053V25.5219L25.1367 25.4667V23.3246L24.2033 23.6357C24.0042 23.7021 23.7984 23.5539 23.7984 23.3439Z" fill="white"/>
<path d="M26.1639 25.3261L25.4073 24.8217C25.2381 24.7088 25.0262 24.6804 24.8332 24.7448L23.8008 25.089L22.9219 32.8194L26.4575 31.5862V25.8745C26.4575 25.6541 26.3473 25.4483 26.1639 25.3261Z" fill="white"/>
<path d="M23.7984 25.0891L22.5 25.5219V33.432H26.4551V31.5863L24.1467 31.8941C23.9623 31.9187 23.7984 31.7752 23.7984 31.5892V25.0891Z" fill="white"/>
<path d="M27.3615 33.2662L26.618 32.9688C26.5127 32.9267 26.3985 32.9124 26.2861 32.9274L23.8008 33.2587L22.9219 41.7935L27.7758 40.9146V33.8782C27.7759 33.6087 27.6118 33.3663 27.3615 33.2662Z" fill="white"/>
<path d="M23.7984 33.2588L22.5 33.4319V43.6621L27.7734 42.204V40.9147H24.106C23.9361 40.9147 23.7984 40.777 23.7984 40.6071V33.2588Z" fill="white"/>
<path d="M30.803 42.2041H23.818L22.4997 43.083L21.1813 42.2041H14.8555L13.9766 44.4014L31.4622 43.5225V42.8633C31.4622 42.4992 31.1671 42.2041 30.803 42.2041Z" fill="white"/>
<path d="M14.8574 42.2041H14.1982C13.8342 42.2041 13.5391 42.4992 13.5391 42.8633V44.8408H21.1833L22.5016 43.9619L23.82 44.8408H31.4642V43.5225H15.165C14.9951 43.5225 14.8574 43.3847 14.8574 43.2148V42.2041Z" fill="white"/>
<path d="M23.8164 43.5225L21.6191 44.4014L21.1797 43.5225V42.2041H23.8164V43.5225Z" fill="white"/>
<path d="M21.1797 43.5225H23.8164V44.8408H21.1797V43.5225Z" fill="white"/>
<path d="M33.0787 45.5H11.9248C11.5607 45.5 11.2656 45.205 11.2656 44.8408C11.2656 44.4767 11.5607 44.1816 11.9248 44.1816H12.88V42.8633C12.88 42.1363 13.4714 41.5449 14.1984 41.5449H15.2507L15.2508 37.4881C15.2508 36.8618 15.6965 36.3181 16.3106 36.1953L16.5691 36.1436V29.3903C16.5691 28.9484 16.7887 28.5383 17.1563 28.2933L17.8875 27.8059V20.6012C17.8875 20.1593 18.107 19.7492 18.4747 19.5042L19.2058 19.0167V12.8844C19.2058 12.5322 19.343 12.2012 19.5919 11.9522L20.5242 11.0201V6.73197C20.5242 6.37979 20.6614 6.0488 20.9103 5.7998L21.8426 4.86755V1.15918C21.8426 0.795049 22.1376 0.5 22.5017 0.5C22.8659 0.5 23.1609 0.795049 23.1609 1.15918V4.86755L24.0932 5.7998C24.3421 6.0488 24.4793 6.37988 24.4793 6.73197V15.1625C24.4793 15.5267 24.1842 12.8844 23.8201 12.8844C23.456 12.8844 23.1609 18.464 23.1609 18.0998V6.73197L22.5017 6.07279L21.8426 6.73206V11.293C21.8426 11.4678 21.7731 11.6354 21.6496 11.7591L20.5242 12.8844V18.8945L21.8426 19.3338V16.2053C21.8426 15.9848 21.9527 15.779 22.1361 15.6568L23.0888 15.0216C23.1126 15.0058 23.1366 14.9909 23.1609 14.9768V12.5837C23.1609 12.2196 23.456 11.9246 23.8201 11.9246C24.1842 11.9246 24.4793 12.2196 24.4793 12.5837V14.9768C24.5036 14.9909 24.5277 15.0058 24.5513 15.0216L25.2105 15.4611C25.5781 15.706 25.7976 16.1161 25.7976 16.558V24.2901L26.5289 24.7777C26.8964 25.0225 27.116 25.4326 27.116 25.8745V31.9775C27.116 32.3417 26.8209 30 26.4568 30C26.0927 30 25.7976 35.4329 25.7976 35.0688V25.8745L25.0411 25.3701L23.1609 25.9969V32.679L25.7976 32.3275V29.5455C25.7976 29.1813 26.0927 28.8863 26.4568 28.8863C26.8209 28.8863 27.116 31.6134 27.116 31.9775V32.4583L27.6055 32.6543C28.1091 32.8556 28.4344 33.336 28.4344 33.8783V41.5449H30.8051C31.5321 41.5449 32.1235 42.1363 32.1235 42.8633V44.1816H33.0787C33.4428 44.1816 33.7379 44.4767 33.7379 44.8408C33.7379 45.205 33.4427 45.5 33.0787 45.5ZM24.4793 44.1816H30.8051V42.8633H24.4793V44.1816ZM21.8426 44.1816H23.1609V42.8633H21.8426V44.1816ZM14.1984 44.1816H20.5242V42.8633H14.1984V44.1816ZM25.7976 41.5449H27.116V33.8783L26.3725 33.581L25.7976 33.6576V41.5449ZM23.1609 41.5449H24.4793V33.8333L23.1609 34.0091V41.5449ZM20.5242 41.5449H21.8426V37.5746L20.5242 37.5087V41.5449ZM16.569 41.5449H19.2058V37.4428L17.2773 37.3463L16.5691 37.488L16.569 41.5449ZM20.5242 36.1888L21.8426 36.2547V29.5662L20.5242 29.2733V36.1888ZM17.8875 36.0569L19.2058 36.1229V28.9803L18.6782 28.8631L17.8875 29.3903V36.0569ZM19.2058 27.6298L21.8426 28.2158V20.7235L19.9624 20.0969L19.2058 20.6012V27.6298ZM23.1609 16.5581V24.6073L24.4793 24.1679V16.5581L23.8201 16.1186L23.1609 16.5581Z" fill="black"/>
</g>
<defs>
<clipPath id="clip0_2888_5084">
<rect width="45" height="45" fill="white" transform="translate(0 0.5)"/>
</clipPath>
</defs>
</svg>
