<svg width="45" height="46" viewBox="0 0 45 46" fill="none" xmlns="http://www.w3.org/2000/svg">
<path d="M31.3955 43.8309H16.3632C15.9844 43.8309 15.6797 43.5261 15.6797 43.1473V13.4132C15.6797 13.1967 15.7822 12.9917 15.9588 12.8635L20.7037 9.36602C21.0085 9.14102 21.4357 9.20652 21.6607 9.51127C21.8857 9.81602 21.8202 10.2432 21.5154 10.4682L17.0468 13.7578V42.4638H30.712V13.7578L26.2433 10.4682C25.9385 10.2432 25.8759 9.81602 26.098 9.51127C26.323 9.20652 26.7503 9.14102 27.055 9.36602L31.7999 12.8635C31.9737 12.9917 32.0791 13.1967 32.0791 13.4132V43.1473C32.0791 43.5261 31.7715 43.8309 31.3955 43.8309Z" fill="black"/>
<path d="M26.645 39.6756H21.1054C20.7266 39.6756 20.4219 39.3709 20.4219 38.9921V32.5126C20.4219 32.1338 20.7266 31.8291 21.1054 31.8291H26.645C27.0238 31.8291 27.3285 32.1338 27.3285 32.5126V38.9921C27.3285 39.368 27.0238 39.6756 26.645 39.6756ZM21.789 38.3085H25.9614V33.1962H21.789V38.3085Z" fill="black"/>
<path d="M26.645 33.1932H21.1054C20.7266 33.1932 20.4219 32.8885 20.4219 32.5097V26.0302C20.4219 25.6514 20.7266 25.3467 21.1054 25.3467H26.645C27.0238 25.3467 27.3285 25.6514 27.3285 26.0302V32.5097C27.3285 32.8885 27.0238 33.1932 26.645 33.1932ZM21.789 31.8261H25.9614V26.7138H21.789V31.8261Z" fill="black"/>
<path d="M26.645 26.7137H21.1054C20.7266 26.7137 20.4219 26.409 20.4219 26.0302V19.5507C20.4219 19.1719 20.7266 18.8672 21.1054 18.8672H26.645C27.0238 18.8672 27.3285 19.1719 27.3285 19.5507V26.0302C27.3285 26.409 27.0238 26.7137 26.645 26.7137ZM21.789 25.3466H25.9614V20.2343H21.789V25.3466Z" fill="black"/>
<path d="M26.645 20.2345H21.1054C20.7266 20.2345 20.4219 19.9297 20.4219 19.5509V13.0715C20.4219 12.6927 20.7266 12.3879 21.1054 12.3879H26.645C27.0238 12.3879 27.3285 12.6927 27.3285 13.0715V19.5509C27.3285 19.9297 27.0238 20.2345 26.645 20.2345ZM21.789 18.8674H25.9614V13.755H21.789V18.8674Z" fill="black"/>
<path d="M26.645 13.755H21.1054C20.7266 13.755 20.4219 13.4502 20.4219 13.0714V6.59199C20.4219 6.21319 20.7266 5.90845 21.1054 5.90845H26.645C27.0238 5.90845 27.3285 6.21319 27.3285 6.59199V13.0714C27.3285 13.4474 27.0238 13.755 26.645 13.755ZM21.789 12.3879H25.9614V7.27554H21.789V12.3879Z" fill="black"/>
<path d="M23.8789 7.27559C23.5001 7.27559 23.1953 6.97084 23.1953 6.59205V2.85249C23.1953 2.47369 23.5001 2.16895 23.8789 2.16895C24.2577 2.16895 24.5624 2.47369 24.5624 2.85249V6.59205C24.5624 6.968 24.2548 7.27559 23.8789 7.27559Z" fill="black"/>
<path d="M43.6874 43.8309H34.8554C34.4766 43.8309 34.1719 43.5261 34.1719 43.1473V16.153C34.1719 15.7742 34.4766 15.4695 34.8554 15.4695H43.6874C44.0662 15.4695 44.3709 15.7742 44.3709 16.153V43.1473C44.3709 43.5261 44.0662 43.8309 43.6874 43.8309ZM35.539 42.4638H43.0038V16.8366H35.539V42.4638Z" fill="black"/>
<path d="M41.9806 16.8366H36.5664C36.1876 16.8366 35.8828 16.5319 35.8828 16.1531V13.7436C35.8828 13.3648 36.1876 13.0601 36.5664 13.0601H41.9806C42.3594 13.0601 42.6641 13.3648 42.6641 13.7436V16.1502C42.6641 16.529 42.3594 16.8366 41.9806 16.8366ZM37.2499 15.4696H41.2971V14.4271H37.2499V15.4696Z" fill="black"/>
<path d="M40.907 22.8918H37.6289C37.2501 22.8918 36.9453 22.587 36.9453 22.2082V18.9272C36.9453 18.5484 37.2501 18.2437 37.6289 18.2437H40.907C41.2858 18.2437 41.5906 18.5484 41.5906 18.9272V22.2054C41.5906 22.5842 41.2858 22.8918 40.907 22.8918ZM38.3124 21.5247H40.2235V19.6107H38.3124V21.5247Z" fill="black"/>
<path d="M40.907 28.9441H37.6289C37.2501 28.9441 36.9453 28.6393 36.9453 28.2605V24.9824C36.9453 24.6036 37.2501 24.2988 37.6289 24.2988H40.907C41.2858 24.2988 41.5906 24.6036 41.5906 24.9824V28.2605C41.5906 28.6393 41.2858 28.9441 40.907 28.9441ZM38.3124 27.577H40.2235V25.6659H38.3124V27.577Z" fill="black"/>
<path d="M40.907 34.999H37.6289C37.2501 34.999 36.9453 34.6943 36.9453 34.3155V31.0373C36.9453 30.6585 37.2501 30.3538 37.6289 30.3538H40.907C41.2858 30.3538 41.5906 30.6585 41.5906 31.0373V34.3155C41.5906 34.6943 41.2858 34.999 40.907 34.999ZM38.3124 33.6319H40.2235V31.7208H38.3124V33.6319Z" fill="black"/>
<path d="M40.907 41.0542H37.6289C37.2501 41.0542 36.9453 40.7494 36.9453 40.3706V37.0925C36.9453 36.7137 37.2501 36.4089 37.6289 36.4089H40.907C41.2858 36.4089 41.5906 36.7137 41.5906 37.0925V40.3706C41.5906 40.7494 41.2858 41.0542 40.907 41.0542ZM38.3124 39.6871H40.2235V37.776H38.3124V39.6871Z" fill="black"/>
<path d="M4.47959 16.8367C4.29731 16.8367 4.11788 16.7655 3.98402 16.623C3.72485 16.3496 3.73624 15.9167 4.00966 15.6575L9.67168 10.2775C9.9451 10.0183 10.378 10.0297 10.6372 10.3031C10.8964 10.5765 10.885 11.0094 10.6116 11.2686L4.94953 16.6487C4.81852 16.774 4.64763 16.8367 4.47959 16.8367Z" fill="black"/>
<path d="M10.1405 43.8309H1.30854C0.929747 43.8309 0.625 43.5261 0.625 43.1473V16.153C0.625 15.7742 0.929747 15.4695 1.30854 15.4695H10.1405C10.5193 15.4695 10.8241 15.7742 10.8241 16.153V43.1473C10.8241 43.5261 10.5165 43.8309 10.1405 43.8309ZM1.99209 42.4638H9.45696V16.8366H1.99209V42.4638Z" fill="black"/>
<path d="M7.36015 22.8918H4.08198C3.70318 22.8918 3.39844 22.587 3.39844 22.2082V18.9272C3.39844 18.5484 3.70318 18.2437 4.08198 18.2437H7.36015C7.73894 18.2437 8.04369 18.5484 8.04369 18.9272V22.2054C8.04369 22.5842 7.7361 22.8918 7.36015 22.8918ZM4.76553 21.5247H6.6766V19.6107H4.76553V21.5247Z" fill="black"/>
<path d="M7.36015 28.9441H4.08198C3.70318 28.9441 3.39844 28.6393 3.39844 28.2605V24.9824C3.39844 24.6036 3.70318 24.2988 4.08198 24.2988H7.36015C7.73894 24.2988 8.04369 24.6036 8.04369 24.9824V28.2605C8.04369 28.6393 7.7361 28.9441 7.36015 28.9441ZM4.76553 27.577H6.6766V25.6659H4.76553V27.577Z" fill="black"/>
<path d="M7.36015 34.999H4.08198C3.70318 34.999 3.39844 34.6943 3.39844 34.3155V31.0373C3.39844 30.6585 3.70318 30.3538 4.08198 30.3538H7.36015C7.73894 30.3538 8.04369 30.6585 8.04369 31.0373V34.3155C8.04369 34.6943 7.7361 34.999 7.36015 34.999ZM4.76553 33.6319H6.6766V31.7208H4.76553V33.6319Z" fill="black"/>
<path d="M7.36015 41.0542H4.08198C3.70318 41.0542 3.39844 40.7494 3.39844 40.3706V37.0925C3.39844 36.7137 3.70318 36.4089 4.08198 36.4089H7.36015C7.73894 36.4089 8.04369 36.7137 8.04369 37.0925V40.3706C8.04369 40.7494 7.7361 41.0542 7.36015 41.0542ZM4.76553 39.6871H6.6766V37.776H4.76553V39.6871Z" fill="black"/>
<path d="M12.8965 43.8309H10.1367C9.75787 43.8309 9.45312 43.5261 9.45312 43.1473V8.01313C9.45312 7.63434 9.75787 7.32959 10.1367 7.32959H12.8965C13.2753 7.32959 13.58 7.63434 13.58 8.01313V43.1473C13.58 43.5261 13.2753 43.8309 12.8965 43.8309ZM10.8202 42.4638H12.2129V8.69668H10.8202V42.4638Z" fill="black"/>
</svg>
