<svg width="45" height="46" viewBox="0 0 45 46" fill="none" xmlns="http://www.w3.org/2000/svg">
<path fill-rule="evenodd" clip-rule="evenodd" d="M25.7432 18.8899H22.75C22.326 18.8899 21.9842 18.5482 21.9842 18.1242V14.9348C21.9842 14.5108 22.326 14.1691 22.75 14.1691H25.7432C26.1672 14.1691 26.5089 14.5108 26.5089 14.9348V18.1242C26.5089 18.5482 26.1672 18.8899 25.7432 18.8899ZM8.43552 32.2172H2.06933C1.64534 32.2172 1.30361 31.8691 1.30361 31.4514C1.30361 31.0275 1.64534 30.6857 2.06933 30.6857H8.43552C8.85318 30.6857 9.20124 31.0275 9.20124 31.4514C9.20124 31.8691 8.85318 32.2172 8.43552 32.2172ZM18.6493 34.8244H12.2831C11.8654 34.8244 11.5174 34.4827 11.5174 34.0587C11.5174 33.6347 11.8654 33.293 12.2831 33.293H18.6493C19.0733 33.293 19.415 33.6347 19.415 34.0587C19.415 34.4827 19.0733 34.8244 18.6493 34.8244ZM28.863 37.7417H22.5032C22.0792 37.7417 21.7374 37.4 21.7374 36.976C21.7374 36.5583 22.0792 36.2103 22.5032 36.2103H28.863C29.287 36.2103 29.6287 36.5583 29.6287 36.976C29.6287 37.4 29.287 37.7417 28.863 37.7417ZM39.0768 40.8552H32.7169C32.2929 40.8552 31.9512 40.5135 31.9512 40.0895C31.9512 39.6655 32.2929 39.3238 32.7169 39.3238H39.0768C39.5008 39.3238 39.8425 39.6655 39.8425 40.0895C39.8425 40.5135 39.5008 40.8552 39.0768 40.8552ZM26.7874 32.2172H20.4275C20.0035 32.2172 19.6618 31.8691 19.6618 31.4514C19.6618 31.0275 20.0035 30.6857 20.4275 30.6857H26.7874C27.2114 30.6857 27.5531 31.0275 27.5531 31.4514C27.5531 31.8691 27.2114 32.2172 26.7874 32.2172ZM8.43552 37.4379H2.06933C1.64534 37.4379 1.30361 37.0962 1.30361 36.6722C1.30361 36.2482 1.64534 35.9065 2.06933 35.9065H8.43552C8.85318 35.9065 9.20124 36.2482 9.20124 36.6722C9.20124 37.0962 8.85318 37.4379 8.43552 37.4379ZM41.4942 32.021H35.1343C34.7103 32.021 34.3686 31.6793 34.3686 31.2553C34.3686 30.8313 34.7103 30.4896 35.1343 30.4896H41.4942C41.9182 30.4896 42.2599 30.8313 42.2599 31.2553C42.2599 31.6793 41.9182 32.021 41.4942 32.021ZM35.0077 34.8244H28.6415C28.2239 34.8244 27.8822 34.4827 27.8822 34.0587C27.8822 33.6347 28.2239 33.293 28.6415 33.293H35.0077C35.4317 33.293 35.7734 33.6347 35.7734 34.0587C35.7734 34.4827 35.4317 34.8244 35.0077 34.8244ZM43.1458 37.4379H36.786C36.362 37.4379 36.0202 37.0962 36.0202 36.6722C36.0202 36.2482 36.362 35.9065 36.786 35.9065H43.1458C43.5698 35.9065 43.9115 36.2482 43.9115 36.6722C43.9115 37.0962 43.5698 37.4379 43.1458 37.4379ZM18.953 40.0452H12.5932C12.1692 40.0452 11.8274 39.7034 11.8274 39.2795C11.8274 38.8618 12.1692 38.5201 12.5932 38.5201H18.953C19.377 38.5201 19.7187 38.8618 19.7187 39.2795C19.7187 39.7034 19.377 40.0452 18.953 40.0452ZM5.46758 25.3004H3.5881C3.16411 25.3004 2.82239 24.9587 2.82239 24.5347C2.82239 24.1107 3.16411 23.769 3.5881 23.769H5.46758C5.89158 23.769 6.2333 24.1107 6.2333 24.5347C6.2333 24.9587 5.89158 25.3004 5.46758 25.3004ZM14.4537 25.3004H12.5742C12.1502 25.3004 11.8085 24.9587 11.8085 24.5347C11.8085 24.1107 12.1502 23.769 12.5742 23.769H14.4537C14.8777 23.769 15.2194 24.1107 15.2194 24.5347C15.2194 24.9587 14.8777 25.3004 14.4537 25.3004ZM23.4397 25.3004H21.5603C21.1363 25.3004 20.7945 24.9587 20.7945 24.5347C20.7945 24.1107 21.1363 23.769 21.5603 23.769H23.4397C23.8637 23.769 24.2055 24.1107 24.2055 24.5347C24.2055 24.9587 23.8637 25.3004 23.4397 25.3004ZM32.4258 25.3004H30.5463C30.1223 25.3004 29.7806 24.9587 29.7806 24.5347C29.7806 24.1107 30.1223 23.769 30.5463 23.769H32.4258C32.8498 23.769 33.1915 24.1107 33.1915 24.5347C33.1915 24.9587 32.8498 25.3004 32.4258 25.3004ZM41.4119 25.3004H39.5324C39.1084 25.3004 38.7667 24.9587 38.7667 24.5347C38.7667 24.1107 39.1084 23.769 39.5324 23.769H41.4119C41.8359 23.769 42.1776 24.1107 42.1776 24.5347C42.1776 24.9587 41.8359 25.3004 41.4119 25.3004ZM3.43623 20.4656V5.91073C3.43623 5.48674 3.77795 5.14502 4.20194 5.14502H16.3395C16.7571 5.14502 17.1052 5.48674 17.1052 5.91073V20.4656H19.2188V5.91073C19.2188 5.48674 19.5605 5.14502 19.9845 5.14502H40.7981C41.222 5.14502 41.5638 5.48674 41.5638 5.91073V20.4656H44.2343C44.6583 20.4656 45 20.8137 45 21.2314C45 21.6554 44.6583 21.9971 44.2343 21.9971H40.7981H19.9845H16.3395H4.20194H0.765715C0.341724 21.9971 0 21.6554 0 21.2314C0 20.8137 0.341724 20.4656 0.765715 20.4656H3.43623ZM15.5738 20.4656V6.67645H4.96766V20.4656H15.5738ZM40.0323 20.4656V6.67645H20.7502V20.4656H40.0323ZM44.2343 28.6037H0.765715C0.341724 28.6037 0 28.262 0 27.838C0 27.414 0.341724 27.0723 0.765715 27.0723H44.2343C44.6583 27.0723 45 27.414 45 27.838C45 28.262 44.6583 28.6037 44.2343 28.6037ZM13.7259 12.973H6.8155C6.39151 12.973 6.04978 12.6313 6.04978 12.2073V9.02422C6.04978 8.60023 6.39151 8.25851 6.8155 8.25851H13.7259C14.1499 8.25851 14.4916 8.60023 14.4916 9.02422V12.2073C14.4916 12.6313 14.1499 12.973 13.7259 12.973ZM7.58121 11.4416H12.9602V9.78994H7.58121V11.4416ZM13.7259 18.8899H6.8155C6.39151 18.8899 6.04978 18.5482 6.04978 18.1242V14.9348C6.04978 14.5108 6.39151 14.1691 6.8155 14.1691H13.7259C14.1499 14.1691 14.4916 14.5108 14.4916 14.9348V18.1242C14.4916 18.5482 14.1499 18.8899 13.7259 18.8899ZM7.58121 17.3585H12.9602V15.7005H7.58121V17.3585ZM38.0326 12.973H35.0394C34.6154 12.973 34.2737 12.6313 34.2737 12.2073V9.02422C34.2737 8.60023 34.6154 8.25851 35.0394 8.25851H38.0326C38.4566 8.25851 38.7983 8.60023 38.7983 9.02422V12.2073C38.7983 12.6313 38.4566 12.973 38.0326 12.973ZM35.8051 11.4416H37.2669V9.78994H35.8051V11.4416ZM38.0326 18.8899H35.0394C34.6154 18.8899 34.2737 18.5482 34.2737 18.1242V14.9348C34.2737 14.5108 34.6154 14.1691 35.0394 14.1691H38.0326C38.4566 14.1691 38.7983 14.5108 38.7983 14.9348V18.1242C38.7983 18.5482 38.4566 18.8899 38.0326 18.8899ZM35.8051 17.3585H37.2669V15.7005H35.8051V17.3585ZM31.8879 12.973H28.8947C28.4707 12.973 28.129 12.6313 28.129 12.2073V9.02422C28.129 8.60023 28.4707 8.25851 28.8947 8.25851H31.8879C32.3119 8.25851 32.6536 8.60023 32.6536 9.02422V12.2073C32.6536 12.6313 32.3119 12.973 31.8879 12.973ZM29.6604 11.4416H31.1222V9.78994H29.6604V11.4416ZM31.8879 18.8899H28.8947C28.4707 18.8899 28.129 18.5482 28.129 18.1242V14.9348C28.129 14.5108 28.4707 14.1691 28.8947 14.1691H31.8879C32.3119 14.1691 32.6536 14.5108 32.6536 14.9348V18.1242C32.6536 18.5482 32.3119 18.8899 31.8879 18.8899ZM29.6604 17.3585H31.1222V15.7005H29.6604V17.3585ZM25.7432 12.973H22.75C22.326 12.973 21.9842 12.6313 21.9842 12.2073V9.02422C21.9842 8.60023 22.326 8.25851 22.75 8.25851H25.7432C26.1672 8.25851 26.5089 8.60023 26.5089 9.02422V12.2073C26.5089 12.6313 26.1672 12.973 25.7432 12.973ZM23.5157 11.4416H24.9775V9.78994H23.5157V11.4416ZM23.5157 17.3585H24.9775V15.7005H23.5157V17.3585Z" fill="black"/>
</svg>
