<svg width="45" height="46" viewBox="0 0 45 46" fill="none" xmlns="http://www.w3.org/2000/svg">
<g clip-path="url(#clip0_2888_5162)">
<path d="M43.081 13.5172C39.9559 12.3413 36.5381 12.4058 33.4767 13.6927L9.82822 22.9153L4.14709 19.3649C3.97456 19.2569 3.76609 19.2239 3.56808 19.2734L0.568172 20.0234C0.337904 20.0811 0.148152 20.2446 0.0574506 20.4636C-0.0340415 20.6833 -0.0153212 20.9323 0.106932 21.1363L4.60684 28.6361C4.74183 28.8611 4.98634 28.9999 5.24957 28.9999H17.9993C18.0946 28.9999 18.1891 28.9819 18.2776 28.9481L43.1703 19.0108C43.1733 19.0093 43.1771 19.0078 43.1809 19.0063C44.2999 18.5398 45.0146 17.4546 44.9995 16.2419C44.9837 15.0323 44.2113 13.9372 43.081 13.5172ZM42.6078 17.6182L17.8554 27.5H5.67486L1.91445 21.2316L3.62292 20.8049L9.35283 24.3853C9.55383 24.5105 9.80203 24.5345 10.0225 24.4483L34.04 15.081C36.7624 13.9373 39.7856 13.8788 42.5553 14.9205C43.1118 15.1275 43.4913 15.6653 43.4987 16.2593C43.5063 16.8547 43.1568 17.3871 42.6078 17.6182Z" fill="black"/>
<path d="M28.8511 16.886L29.6469 15.614L5.64735 0.61435C5.45759 0.496579 5.22513 0.468103 5.01288 0.53859L0.512973 2.03859C0.258711 2.1241 0.0689594 2.33785 0.0149958 2.60028C-0.0382648 2.86281 0.0525242 3.1343 0.252735 3.31201L19.7523 20.5617L20.7468 19.4382L2.22144 3.05027L5.15236 2.07383L28.8511 16.886Z" fill="black"/>
<path d="M41.7269 13.3054L37.9766 14.7817L38.5257 16.1767L42.276 14.7004L41.7269 13.3054Z" fill="black"/>
<path d="M23.7812 20.5101L24.3363 21.9051L25.7237 21.3576L25.1762 19.9551L23.7812 20.5101Z" fill="black"/>
<path d="M26.5703 19.4076L27.1178 20.8025L28.4978 20.2551L27.9578 18.8601L26.5703 19.4076Z" fill="black"/>
<path d="M20.9994 21.6052L21.5469 23.0002L22.9419 22.4528L22.3945 21.0578L20.9994 21.6052Z" fill="black"/>
<path d="M36.3168 15.5676L34.9219 16.1152L35.4694 17.5101L36.8644 17.0001L36.3168 15.5676Z" fill="black"/>
<path d="M32.1328 17.2177L32.6878 18.6127L34.0828 18.0651L33.5278 16.6702L32.1328 17.2177Z" fill="black"/>
<path d="M29.3516 18.3125L29.899 19.7075L31.294 19.145L30.7465 17.75L29.3516 18.3125Z" fill="black"/>
<path d="M41.9999 32.7498H39C38.5852 32.7498 38.25 33.085 38.25 33.4997V44.7495C38.25 45.1642 38.5852 45.4994 39 45.4994H41.9999C42.4146 45.4994 42.7498 45.1642 42.7498 44.7495V33.4997C42.7498 33.0851 42.4146 32.7498 41.9999 32.7498ZM41.2498 43.9995H39.7498V34.2498H41.2498V43.9995Z" fill="black"/>
<path d="M44.8291 29.2742C44.6866 29.101 44.4743 28.9998 44.2493 28.9998H36.7495C36.5245 28.9998 36.3123 29.101 36.1698 29.2742C36.0281 29.4475 35.9703 29.6762 36.0146 29.8967L36.7646 33.6467C36.8343 33.9969 37.1418 34.2497 37.4996 34.2497H43.4995C43.8572 34.2497 44.1647 33.9969 44.2345 33.6467L44.9844 29.8967C45.0286 29.6762 44.9708 29.4475 44.8291 29.2742ZM42.8843 32.7496H38.1137L37.6644 30.4997H43.3342L42.8843 32.7496Z" fill="black"/>
<path d="M41.9999 25.9998H39C38.5852 25.9998 38.25 26.335 38.25 26.7497V29.7496C38.25 30.1644 38.5852 30.4996 39 30.4996H41.9999C42.4146 30.4996 42.7498 30.1644 42.7498 29.7496V26.7497C42.7498 26.3351 42.4146 25.9998 41.9999 25.9998ZM41.2498 28.9997H39.7498V27.4997H41.2498V28.9997Z" fill="black"/>
<path d="M41.25 23.75H39.75V26.7499H41.25V23.75Z" fill="black"/>
<path d="M44.999 43.9995H0V45.4995H44.999V43.9995Z" fill="black"/>
<path d="M35.9995 37.9995H15C14.586 37.9995 14.25 38.3347 14.25 38.7495V44.7494C14.25 45.1641 14.586 45.4993 15 45.4993H35.9995C36.4142 45.4993 36.7494 45.1641 36.7494 44.7494V38.7495C36.7494 38.3348 36.4142 37.9995 35.9995 37.9995ZM35.2495 43.9994H15.7499V39.4995H35.2495V43.9994Z" fill="black"/>
<path d="M33.75 40.9995H32.25V42.4995H33.75V40.9995Z" fill="black"/>
<path d="M30.75 40.9995H29.25V42.4995H30.75V40.9995Z" fill="black"/>
<path d="M27.75 40.9995H26.25V42.4995H27.75V40.9995Z" fill="black"/>
<path d="M24.75 40.9995H23.25V42.4995H24.75V40.9995Z" fill="black"/>
<path d="M21.75 40.9995H20.25V42.4995H21.75V40.9995Z" fill="black"/>
<path d="M18.75 40.9995H17.25V42.4995H18.75V40.9995Z" fill="black"/>
<path d="M14.9998 40.2495H5.99995C5.586 40.2495 5.25 40.5847 5.25 40.9995V44.7494C5.25 45.1642 5.586 45.4994 5.99995 45.4994H14.9998C15.4137 45.4994 15.7497 45.1642 15.7497 44.7494V40.9995C15.7497 40.5848 15.4137 40.2495 14.9998 40.2495ZM14.2497 43.9995H6.74991V41.7495H14.2497V43.9995Z" fill="black"/>
</g>
<defs>
<clipPath id="clip0_2888_5162">
<rect width="45" height="45" fill="white" transform="translate(0 0.5)"/>
</clipPath>
</defs>
</svg>
