<svg width="45" height="46" viewBox="0 0 45 46" fill="none" xmlns="http://www.w3.org/2000/svg">
<path d="M42.1875 34.9531H38.572C38.2577 33.743 37.1665 32.8438 35.8594 32.8438V27.9036C36.4486 28.3501 37.1742 28.625 37.9688 28.625C39.9073 28.625 41.4844 27.0479 41.4844 25.1094C41.4844 24.8893 41.4619 24.6678 41.4169 24.4463C42.3387 23.7931 42.8906 22.7455 42.8906 21.5938C42.8906 20.6016 42.48 19.6834 41.7642 19.0259C42.0398 18.5169 42.1875 17.9495 42.1875 17.375C42.1875 16.5024 41.8598 15.672 41.2748 15.0294C41.4141 14.649 41.4844 14.2573 41.4844 13.8594C41.4844 12.0594 40.1252 10.5716 38.3794 10.3677C37.8345 9.08867 36.5759 8.23438 35.1562 8.23438C33.7366 8.23438 32.478 9.08867 31.9331 10.3677C30.1873 10.5716 28.8281 12.0594 28.8281 13.8594C28.8281 14.2573 28.8984 14.649 29.0377 15.0294C28.6692 15.4337 28.4175 15.9167 28.2705 16.4335C27.4099 15.698 26.3981 15.2656 25.3125 15.2656C23.9737 15.2656 22.7447 15.9139 21.7779 16.9918C21.6879 16.0496 21.2688 15.1496 20.5966 14.4774L18.5723 12.4531H21.7969V11.037C21.7969 10.3775 21.4685 9.7482 20.9187 9.35445C18.3755 7.53195 16.3238 5.07453 14.9871 2.24656C14.6827 1.6025 14.0583 1.20312 13.3594 1.20312C12.6605 1.20312 12.0361 1.6025 11.7316 2.24656C10.3957 5.07453 8.34398 7.53266 5.79938 9.35445C5.25023 9.7482 4.92188 10.3775 4.92188 11.037V12.4531H8.14641L6.12211 14.4774C5.35922 15.2403 4.92188 16.2964 4.92188 17.375V18.0781H8.14641L6.12211 20.1024C5.35922 20.8653 4.92188 21.9214 4.92188 23V23.7031H12.6562V26.5156C10.8563 26.5156 9.36844 27.8748 9.16453 29.6206C7.88555 30.1655 7.03125 31.4241 7.03125 32.8438C7.03125 33.6207 7.2907 34.3674 7.73227 34.9531C6.57 34.9545 5.625 35.9002 5.625 37.0625C5.625 37.4506 5.31 37.7656 4.92188 37.7656H2.8125C1.64953 37.7656 0.703125 38.712 0.703125 39.875C0.703125 41.038 1.64953 41.9844 2.8125 41.9844H6.4575C6.37875 42.2052 6.32812 42.44 6.32812 42.6875C6.32812 43.8505 7.27453 44.7969 8.4375 44.7969H35.8594C37.0223 44.7969 37.9688 43.8505 37.9688 42.6875C37.9688 41.5245 37.0223 40.5781 35.8594 40.5781H34.4531H33.75C33.3619 40.5781 33.0469 40.2631 33.0469 39.875C33.0469 39.4869 33.3619 39.1719 33.75 39.1719H42.1875C43.3505 39.1719 44.2969 38.2255 44.2969 37.0625C44.2969 35.8995 43.3505 34.9531 42.1875 34.9531ZM37.0617 34.9531H27.6293C27.7952 34.6747 28.0463 34.4483 28.369 34.3358L28.857 34.1656L28.8401 33.6488C28.8387 33.6038 28.8338 33.5602 28.8281 33.5469C28.8281 32.3839 29.7745 31.4375 30.9375 31.4375C31.6884 31.4375 32.3887 31.8523 32.7656 32.5196L32.9323 32.8156L33.2684 32.8684C33.8098 32.9541 34.2527 33.3528 34.3969 33.8851L34.6036 34.6487L35.3377 34.3534C36.0141 34.0834 36.7235 34.397 37.0617 34.9531ZM26.0156 30.6676C27.5836 30.3969 28.9498 29.2367 29.8434 27.5647C30.4938 28.2228 31.3889 28.625 32.3438 28.625C33.1383 28.625 33.8639 28.3501 34.4531 27.9036V31.8355C34.2534 31.7188 34.0439 31.6175 33.8175 31.5528C33.1636 30.6064 32.0878 30.0312 30.9375 30.0312C29.1087 30.0312 27.6019 31.4347 27.4366 33.2206C26.7757 33.5975 26.2983 34.2254 26.1077 34.9531H26.0156V30.6676ZM30.3251 15.743L30.7814 15.3746L30.5009 14.8599C30.3244 14.5344 30.2344 14.1976 30.2344 13.8594C30.2344 12.6964 31.1808 11.75 32.298 11.7479L32.9808 11.783L33.1214 11.2304C33.3598 10.2945 34.1972 9.64062 35.1562 9.64062C36.1153 9.64062 36.9527 10.2945 37.1918 11.2304L37.3324 11.783L37.9034 11.7591C37.9406 11.7577 37.9779 11.7535 37.9688 11.75C39.1317 11.75 40.0781 12.6964 40.0781 13.8594C40.0781 14.1976 39.9881 14.5344 39.8116 14.8592L39.5311 15.3739L39.9874 15.7423C40.4923 16.1502 40.7812 16.745 40.7812 17.375C40.7812 17.9994 40.5035 18.4564 40.2708 18.7306L39.7329 19.3641L40.4473 19.7888C41.0963 20.177 41.4844 20.8513 41.4844 21.5938C41.4844 22.403 41.0259 23.1287 40.2863 23.4852L39.7076 23.765L39.9347 24.3662C40.0303 24.6193 40.0781 24.8689 40.0781 25.1094C40.0781 26.2723 39.1317 27.2188 37.9688 27.2188C36.8058 27.2188 35.8594 26.2723 35.8594 25.1094V23.2475L38.5179 19.9238L37.4189 19.0449L35.8594 20.9947V13.8594H34.4531V18.1822L32.8929 16.2324L31.7939 17.1113L34.4531 20.435V25.1094C34.4531 26.2723 33.5067 27.2188 32.3438 27.2188C31.5541 27.2188 30.8306 26.7638 30.472 26.072C30.7702 25.1291 30.9375 24.0913 30.9375 23C30.9375 21.046 30.4038 19.2643 29.5312 17.9016V17.375C29.5312 16.745 29.8202 16.1502 30.3251 15.743ZM25.3125 16.6719C27.6391 16.6719 29.5312 19.5104 29.5312 23C29.5312 26.1296 28.0076 28.7284 26.0156 29.2332V23.9506L28.6741 20.627L27.5752 19.748L26.0156 21.6978V19.4844H24.6094V24.8963L23.085 22.6098L21.915 23.3895L24.6094 27.4318V29.2332C22.6174 28.7291 21.0938 26.1296 21.0938 23C21.0938 19.5104 22.9859 16.6719 25.3125 16.6719ZM20.977 18.0781C20.6761 18.578 20.4258 19.1349 20.2233 19.7284L18.5723 18.0781H20.977ZM7.11633 21.0966L10.1348 18.0781H11.25V16.6719H6.42305C6.54609 16.2212 6.78445 15.8042 7.11633 15.4716L10.1348 12.4531H11.25V11.0469H6.32812V11.037C6.32812 10.8268 6.43359 10.6299 6.61852 10.497C9.35719 8.53672 11.5643 5.89086 13.0029 2.84773C13.1414 2.55242 13.5766 2.55242 13.7159 2.84773C15.1545 5.89086 17.3623 8.53672 20.0995 10.497C20.2852 10.6299 20.3906 10.8275 20.3906 11.037L15.4688 11.0469V12.4531H16.5839L19.6024 15.4716C19.935 15.8042 20.1734 16.2212 20.2957 16.6719H15.4688V18.0781H16.5839L19.6024 21.0966C19.6812 21.1754 19.7529 21.2584 19.8204 21.3448C19.7712 21.6556 19.7346 21.9727 19.7135 22.2969H6.42305C6.54609 21.8462 6.78375 21.4292 7.11633 21.0966ZM14.0625 23.7031H19.7135C19.9519 27.3186 22.0064 30.2183 24.6094 30.6676V34.9531H21.7856C22.2405 34.3484 22.5 33.6123 22.5 32.8438C22.5 30.9052 20.9229 29.3281 18.9844 29.3281C18.7643 29.3281 18.5421 29.3506 18.3213 29.3956C17.6681 28.4738 16.6212 27.9219 15.4688 27.9219C15.4638 27.9219 15.4582 27.9219 15.454 27.9219C15.0891 27.436 14.606 27.062 14.0625 26.8208V23.7031ZM10.0273 30.8082L10.5799 30.6676L10.556 30.0966C10.5546 30.0629 10.5511 30.0291 10.5476 30.0291C10.5476 30.0291 10.5469 30.0298 10.5469 30.0305C10.5469 28.8676 11.4933 27.9212 12.6562 27.9212C13.4093 27.9212 14.1096 28.3367 14.4858 29.0054L14.7818 29.416L15.2578 29.3492C15.3267 29.3408 15.3963 29.3281 15.4688 29.3281C16.2787 29.3281 17.0037 29.7866 17.3602 30.5255L17.64 31.1063L18.2426 30.8771C19.6896 30.3287 21.0945 31.4382 21.0938 32.8438C21.0938 33.4484 20.8336 34.0257 20.3787 34.4258L19.9716 34.9531H9.64477L9.15187 34.4258C8.69766 34.0257 8.4375 33.4484 8.4375 32.8438C8.4375 31.8847 9.09141 31.0473 10.0273 30.8082ZM42.1875 37.7656H33.75C32.587 37.7656 31.6406 38.712 31.6406 39.875C31.6406 40.1225 31.6912 40.3573 31.77 40.5781H30.2344V41.9844H33.75H34.4531H35.8594C36.2475 41.9844 36.5625 42.2994 36.5625 42.6875C36.5625 43.0756 36.2475 43.3906 35.8594 43.3906H8.4375C8.04938 43.3906 7.73438 43.0756 7.73438 42.6875C7.73438 42.2994 8.04938 41.9844 8.4375 41.9844H10.5469H12.6562V40.5781H10.5469H8.4375H2.8125C2.42438 40.5781 2.10938 40.2631 2.10938 39.875C2.10938 39.4869 2.42438 39.1719 2.8125 39.1719H4.92188C6.08484 39.1719 7.03125 38.2255 7.03125 37.0625C7.03125 36.6744 7.34625 36.3594 7.73438 36.3594H42.1875C42.5756 36.3594 42.8906 36.6744 42.8906 37.0625C42.8906 37.4506 42.5756 37.7656 42.1875 37.7656Z" fill="black"/>
<path d="M16.875 39.5234C16.875 38.5538 16.0868 37.7656 15.1172 37.7656H12.6562V39.1719H15.1172C15.3105 39.1719 15.4688 39.3301 15.4688 39.5234C15.4688 40.493 16.257 41.2812 17.2266 41.2812H19.6875V39.875H17.2266C17.0332 39.875 16.875 39.7168 16.875 39.5234Z" fill="black"/>
</svg>
