<svg width="45" height="46" viewBox="0 0 45 46" fill="none" xmlns="http://www.w3.org/2000/svg">
<g clip-path="url(#clip0_2888_5232)">
<path d="M44.4375 44.875H33.5825V5.13745C33.5825 4.95041 33.4896 4.77545 33.3342 4.67108C33.1798 4.56616 32.9821 4.54584 32.809 4.61615C32.7403 4.64392 32.2652 4.83982 31.5 5.22229V1.5625C31.5 1.25186 31.2484 1 30.9375 1C30.6266 1 30.375 1.25186 30.375 1.5625V5.81345C27.9464 7.1486 24.0543 9.66131 20.317 13.6716C19.0915 14.9868 17.8355 16.5261 16.6468 18.2969H14.0625C13.7516 18.2969 13.5 18.5487 13.5 18.8594C13.5 19.17 13.7516 19.4219 14.0625 19.4219H15.9224C14.4803 21.7502 13.177 24.4452 12.2004 27.5277C12.1516 27.6079 12.1175 27.6967 12.1143 27.7967C11.2753 30.5183 10.6954 33.5399 10.4986 36.8729C10.4943 36.9007 10.4821 36.9257 10.4821 36.9547C10.4821 36.9695 10.4894 36.9819 10.4905 36.9965C10.353 39.4512 10.4272 42.0764 10.7589 44.875H0.5625C0.251587 44.875 0 45.1269 0 45.4375C0 45.7481 0.251587 46 0.5625 46H44.4375C44.7484 46 45 45.7481 45 45.4375C45 45.1269 44.7484 44.875 44.4375 44.875ZM32.4575 44.875H29.6719V7.53244C30.857 6.81668 31.832 6.31237 32.4575 6.01114V44.875ZM17.462 44.875C16.6807 42.3082 16.1798 39.8418 15.8792 37.5172H16.7537L27.0706 44.875H17.462ZM13.1166 28.3766H14.5069C14.3322 30.7353 14.3199 33.4406 14.618 36.3922H11.6588C11.8723 33.4713 12.3883 30.8019 13.1166 28.3766ZM28.5469 28.3766V36.0989L16.7257 28.3766H28.5469ZM15.7313 27.2516C16.1016 23.6082 16.8333 20.9682 17.2139 19.7745L27.1456 27.2516H15.7313ZM28.5469 44.546L18.6913 37.5172H28.5469V44.546ZM28.5469 26.8982L18.6162 19.4219H28.5469V26.8982ZM14.6047 27.2516H13.4748C13.9904 25.7218 14.5896 24.2961 15.2443 22.9673C14.9993 24.1806 14.7664 25.6204 14.6047 27.2516ZM15.5915 28.9796L26.9385 36.3922H15.7478C15.4663 33.6801 15.4546 31.1836 15.5915 28.9796ZM21.1086 14.4725C23.6778 11.7086 26.3603 9.6596 28.5469 8.23628V18.2969H18.013C19.0258 16.855 20.0782 15.581 21.1086 14.4725ZM11.5914 37.5172H14.746C15.0388 39.8438 15.5309 42.3107 16.291 44.875H11.8911C11.5752 42.2686 11.4878 39.8166 11.5914 37.5172Z" fill="black"/>
</g>
<defs>
<clipPath id="clip0_2888_5232">
<rect width="45" height="45" fill="white" transform="translate(0 0.5)"/>
</clipPath>
</defs>
</svg>
