<svg width="16" height="16" viewBox="0 0 16 16" fill="none" xmlns="http://www.w3.org/2000/svg">
<path d="M4.21094 6.28906L4.66186 3.58356C4.76231 2.98083 5.2838 2.53906 5.89484 2.53906H10.027C10.6381 2.53906 11.1596 2.98083 11.26 3.58356L11.7109 6.28906M4.21094 6.28906H11.7109M4.21094 6.28906C3.52058 6.28906 2.96094 6.84869 2.96094 7.53906V8.78906C2.96094 9.47944 3.52058 10.0391 4.21094 10.0391M11.7109 6.28906C12.4013 6.28906 12.9609 6.84869 12.9609 7.53906V8.78906C12.9609 9.47944 12.4013 10.0391 11.7109 10.0391M4.21094 10.0391H11.7109M4.21094 10.0391V10.9766C4.21094 11.4943 4.63066 11.9141 5.14841 11.9141C5.66616 11.9141 6.08587 11.4943 6.08587 10.9766V10.0391H4.21094ZM11.7109 10.0391L11.7109 10.9766C11.7109 11.4943 11.2911 11.9141 10.7734 11.9141C10.2556 11.9141 9.83594 11.4943 9.83594 10.9766V10.0391H11.7109Z" stroke="#201D1E" stroke-opacity="0.4" stroke-width="0.715686"/>
</svg>
