<svg width="70" height="70" viewBox="0 0 70 70" fill="none" xmlns="http://www.w3.org/2000/svg">
<g clip-path="url(#clip0_3068_8383)">
<path fill-rule="evenodd" clip-rule="evenodd" d="M32.2351 0.135101C20.5694 1.08347 10.174 7.74905 4.41626 17.9723C-0.419877 26.5592 -1.33761 37.0741 1.92782 46.485C3.65987 51.4765 6.2174 55.5945 9.9837 59.4555C20.5005 70.237 36.7255 73.0645 50.2945 66.4805C57.616 62.928 63.6995 56.663 66.942 49.3366C72.2795 37.2751 70.552 23.6254 62.3685 13.2094C60.4475 10.764 56.6185 7.3049 53.951 5.60475C50.9755 3.7086 47.2908 2.08672 44.0267 1.23649C41.5469 0.59042 39.8988 0.314663 37.3842 0.12481C35.1489 -0.0440141 34.4189 -0.0425226 32.2351 0.135101ZM49.1888 24.3302C50.142 24.833 50.7075 25.7073 50.7865 26.8002C50.9075 28.468 51.228 28.0813 42.2537 37.0811C37.7285 41.619 33.7574 45.4874 33.4291 45.6771C32.6309 46.1385 31.8838 46.2507 31.0142 46.0396C30.3414 45.8763 29.9491 45.5218 24.9478 40.5541C22.007 37.633 19.5041 35.0596 19.3859 34.8355C19.0672 34.2317 18.973 33.2361 19.1666 32.5179C19.6527 30.7139 21.8727 29.7175 23.5688 30.542C23.9453 30.7248 25.6197 32.2815 27.9798 34.6427L31.7842 38.4485L38.8004 31.4463C43.2068 27.0487 46.0111 24.3605 46.3391 24.2194C47.1494 23.871 48.4115 23.9201 49.1888 24.3302Z" fill="#53AE6B"/>
</g>
<defs>
<clipPath id="clip0_3068_8383">
<rect width="70" height="70" fill="white"/>
</clipPath>
</defs>
</svg>
