<svg width="42" height="42" viewBox="0 0 42 42" fill="none" xmlns="http://www.w3.org/2000/svg">
<circle opacity="0.5" cx="21" cy="21" r="21" fill="black"/>
<circle cx="20.9994" cy="21.0014" r="14.5385" fill="black"/>
<path fill-rule="evenodd" clip-rule="evenodd" d="M20.4417 28.7002C20.619 28.7837 20.8112 28.8277 21.0058 28.8295C21.2 28.8283 21.3919 28.7851 21.5692 28.7025C21.7465 28.6199 21.9053 28.4997 22.0355 28.3497C23.7361 26.3822 26.5969 22.7039 26.5969 20.2809C26.6181 18.7157 26.0412 17.2058 24.9929 16.0827C23.9445 14.9597 22.5105 14.3153 21.0058 14.291C19.501 14.3153 18.067 14.9597 17.0187 16.0827C15.9704 17.2058 15.3935 18.7157 15.4146 20.2809C15.4146 22.7185 18.2754 26.4064 19.9761 28.3449C20.1058 28.4957 20.2644 28.6168 20.4417 28.7002ZM19.4582 22.5253C19.9179 22.8448 20.4584 23.0154 21.0113 23.0154C21.7528 23.0154 22.4638 22.709 22.9881 22.1637C23.5124 21.6184 23.8069 20.8788 23.8069 20.1077C23.8069 19.5326 23.6429 18.9704 23.3358 18.4922C23.0286 18.0141 22.592 17.6414 22.0811 17.4213C21.5703 17.2012 21.0082 17.1436 20.4659 17.2558C19.9236 17.368 19.4255 17.645 19.0346 18.0516C18.6436 18.4583 18.3773 18.9764 18.2695 19.5404C18.1616 20.1044 18.217 20.6891 18.4285 21.2204C18.6401 21.7517 18.9985 22.2058 19.4582 22.5253ZM19.9759 18.4959C20.2824 18.2829 20.6427 18.1692 21.0113 18.1692C21.5056 18.1692 21.9797 18.3734 22.3292 18.737C22.6787 19.1005 22.875 19.5936 22.875 20.1077C22.875 20.4911 22.7657 20.8658 22.5609 21.1846C22.3562 21.5034 22.0651 21.7519 21.7245 21.8986C21.384 22.0453 21.0093 22.0837 20.6477 22.0089C20.2862 21.9341 19.9541 21.7495 19.6935 21.4784C19.4328 21.2073 19.2553 20.8619 19.1834 20.4858C19.1115 20.1098 19.1484 19.7201 19.2895 19.3658C19.4305 19.0116 19.6694 18.7089 19.9759 18.4959Z" fill="#F8F5F3"/>
</svg>
